<svg width="1000" height="312" viewBox="0 0 1000 312" fill="none" xmlns="http://www.w3.org/2000/svg">
<path d="M126.111 308.556C124.527 307.865 123.438 306.976 122.745 305.495C121.854 303.619 121.953 302.237 121.854 300.262L114.925 242.106C114.628 240.032 114.826 238.65 115.816 236.971C116.806 235.194 117.895 234.602 119.677 233.812H91.861L78.2996 277.75L61.3726 233.812H34.9428C36.6256 235.194 37.6155 236.28 38.4074 238.452C39.3973 240.625 39.6942 242.106 39.3973 244.574L33.062 298.781C32.6661 301.546 32.1711 303.126 30.5873 305.495C29.5974 306.779 28.9045 307.569 27.5187 308.556H51.1768C49.791 307.964 48.9991 307.47 48.0092 306.483C46.5244 305.1 45.2376 303.915 45.4355 301.842L49.3951 259.582L62.9564 295.72C64.4413 299.966 67.3119 302.928 69.8856 304.903C73.5482 307.569 76.0229 309.149 80.4773 310.235L95.9195 260.273L99.978 300.262C100.176 302.237 99.879 303.619 98.9881 305.495C98.2952 306.976 97.3053 307.865 95.6225 308.556H126.111Z" fill="black"/>
<path d="M212.605 308.556C210.724 306.878 209.635 305.792 208.15 303.817C206.666 301.842 205.676 300.558 204.785 298.189L181.424 233.812H152.816C155.588 234.7 157.963 237.465 157.963 240.822C158.062 241.809 157.864 242.402 157.567 243.389L137.869 300.262C136.978 302.533 135.79 303.718 134.305 305.495C133.315 306.68 132.721 307.569 131.534 308.556H156.677C154.994 308.062 152.618 306.976 151.529 304.508C150.539 302.237 150.836 300.065 151.628 297.596L155.687 285.748H178.157L182.116 297.695C183.007 300.163 183.205 302.138 182.017 304.508C180.83 306.878 178.751 308.062 177.068 308.556H212.605ZM174.593 274.887H158.755L166.674 253.164L174.593 274.887Z" fill="black"/>
<path d="M277.334 255.435C276.74 243.192 268.524 233.812 253.082 233.812H220.614C221.702 234.503 222.395 234.996 223.187 235.984C224.177 237.465 225.365 241.908 225.365 242.204V299.275C225.365 302.434 224.474 304.705 222.197 306.976C221.504 307.766 221.01 308.062 220.119 308.655H251.102C249.419 307.47 248.528 306.581 247.439 304.804C245.658 301.941 245.361 299.67 245.361 296.313V245.858L246.845 246.055C253.874 246.746 257.14 253.066 256.942 259.78C256.744 267.679 253.28 274.195 246.152 276.861L252.686 276.96C265.257 277.059 277.73 267.876 277.334 255.435Z" fill="black"/>
<path d="M397.803 270.147C397.803 247.734 380.084 232.923 356.129 232.923C331.085 232.923 313.762 250.103 313.762 272.122C313.762 292.758 329.303 310.63 353.753 310.63C379.49 310.63 397.803 295.622 397.803 270.147ZM375.531 275.282C375.531 287.723 370.185 299.374 356.129 299.374C343.261 299.374 335.54 283.773 335.54 268.666C335.54 255.336 341.875 244.08 354.545 244.08C369.492 244.08 375.531 260.076 375.531 275.282Z" fill="black"/>
<path d="M450.947 250.696V233.219C450.452 233.515 450.155 233.614 449.858 233.713C449.165 233.91 448.77 233.812 448.077 233.812H405.611C407.294 234.799 408.184 235.688 409.273 237.169C410.362 238.551 410.758 242.402 410.758 242.797V299.374C410.758 302.533 410.263 304.903 407.986 307.075C407.195 307.766 406.601 308.161 405.71 308.655L437.386 308.556C435.901 307.47 435.208 306.68 434.218 305.1C432.436 302.434 431.843 300.361 431.843 297.103V274.887H437.98C439.663 274.887 441.543 275.38 443.028 277.059C444.018 278.145 444.612 278.836 444.909 280.317V262.841C444.513 263.038 444.117 263.236 443.721 263.334C443.325 263.532 442.929 263.729 442.533 263.729H431.843V245.463H443.226C443.919 245.463 446.493 246.154 448.176 247.339C449.462 248.326 450.155 249.313 450.947 250.696Z" fill="black"/>
<path d="M543.288 293.054C537.744 296.51 536.062 297.794 527.054 297.892C522.401 297.892 519.927 297.596 515.67 296.016V242.896C515.67 242.501 516.165 239.242 517.155 237.761C518.442 236.083 519.036 234.997 520.718 233.812H489.438C491.319 234.7 492.21 235.786 493.398 237.366C494.487 238.847 494.784 242.007 494.784 242.402V299.374C494.784 302.434 492.903 305.89 491.715 306.779C490.824 307.569 490.329 308.062 489.24 308.655L539.328 308.556L543.288 293.054Z" fill="black"/>
<path d="M606.633 291.277C601.981 295.424 601.189 297.004 592.181 298.09C587.232 298.584 580.698 297.596 577.432 296.313V274.887H584.955C585.648 274.887 588.32 275.084 590.003 276.269C591.488 277.256 592.28 278.244 592.874 279.922V262.939C592.379 263.137 591.884 263.334 591.389 263.532C590.3 263.828 589.508 263.729 588.419 263.729H577.531V245.463H588.815C589.508 245.463 592.181 246.055 593.864 247.24C595.25 248.227 595.942 249.017 596.635 250.597V233.219C596.239 233.515 595.942 233.614 595.448 233.713C594.854 233.91 594.359 233.812 593.765 233.812H551.299C552.883 234.799 553.774 235.984 554.961 237.465C555.951 238.946 556.446 242.007 556.446 242.303V298.88C556.446 301.941 555.951 304.31 553.774 306.68C552.883 307.668 552.19 307.964 551.002 308.556H601.882L606.633 291.277Z" fill="black"/>
<path d="M680.448 306.68V270.147H656.196C657.78 271.233 658.572 272.122 659.562 273.8C660.453 275.38 660.948 276.565 660.948 278.54V297.991C660.651 298.189 660.453 298.189 660.156 298.189C659.859 298.287 659.76 298.386 659.364 298.386H654.315C642.14 298.386 635.112 284.76 635.112 269.259C635.211 259.483 637.982 245.956 655.008 244.574C659.958 244.08 667.085 246.845 669.065 248.129L673.321 250.696L673.222 235.194C668.471 233.614 662.333 233.318 655.701 232.923C633.825 231.738 613.532 249.017 613.73 271.332C613.829 296.214 634.122 310.432 655.998 310.037C665.501 309.84 677.874 307.668 680.448 306.68Z" fill="black"/>
<path d="M743.999 291.277C739.346 295.424 738.554 297.004 729.546 298.09C724.597 298.584 718.064 297.596 714.797 296.313V274.887H722.32C723.013 274.887 725.686 275.084 727.369 276.269C728.853 277.256 729.645 278.244 730.239 279.922V262.939C729.744 263.137 729.249 263.334 728.754 263.532C727.665 263.828 726.874 263.729 725.785 263.729H714.896V245.463H726.181C726.874 245.463 729.546 246.055 731.229 247.24C732.615 248.227 733.308 249.017 734.001 250.597V233.219C733.605 233.515 733.308 233.614 732.813 233.713C732.219 233.91 731.724 233.812 731.13 233.812H688.664C690.248 234.799 691.139 235.984 692.327 237.465C693.317 238.946 693.812 242.007 693.812 242.303V298.88C693.812 301.941 693.317 304.31 691.139 306.68C690.248 307.668 689.555 307.964 688.367 308.556H739.247L743.999 291.277Z" fill="black"/>
<path d="M826.524 233.812H804.648C806.232 235.293 806.925 236.873 808.014 238.847C809.004 241.02 809.597 242.501 809.597 244.969V280.218L774.853 233.812H751.194C751.887 234.305 754.659 237.564 756.045 240.328C757.53 243.488 757.728 245.759 757.728 249.313V296.806C757.728 300.065 756.936 302.632 755.451 305.1C754.56 306.581 753.867 307.371 752.58 308.556H775.15C773.863 307.371 773.071 306.581 772.18 305.1C770.398 302.336 769.903 300.163 769.903 296.905V262.051L795.937 296.905C798.313 300.065 801.777 303.323 809.3 307.273C813.656 309.642 816.626 310.531 821.476 311.518L821.575 245.068C821.575 242.501 821.971 240.921 823.159 238.65C824.149 236.774 825.04 235.293 826.524 233.812Z" fill="black"/>
<path d="M910.647 272.418C910.943 251.584 895.402 233.812 873.031 233.812H835.911C837.395 234.799 838.187 235.984 839.177 237.366C840.365 239.143 841.058 240.427 841.058 242.501V299.374C841.058 302.632 840.464 304.903 838.187 307.174C837.296 308.161 836.504 308.062 835.317 308.556H869.863C896.887 308.556 910.251 293.647 910.647 272.418ZM888.572 272.221C888.473 285.649 881.841 303.915 865.013 297.596L861.647 296.313V247.141L865.112 246.549C882.831 243.192 888.572 258.792 888.572 272.221Z" fill="black"/>
<path d="M973.199 285.452C973.001 275.973 966.17 268.172 958.548 264.717L951.025 261.261C943.205 257.509 937.068 254.942 939.444 248.919C941.126 244.87 945.284 243.685 949.738 243.883C953.896 244.08 958.251 245.561 960.429 246.746L964.884 249.215V235.984L957.756 234.207C953.401 233.219 949.144 232.726 944.987 232.824C930.436 233.318 918.26 240.625 917.864 253.263C917.468 264.717 923.111 270.641 936.276 277.059L944.195 280.91C948.55 282.983 952.213 285.748 952.213 290.586C952.312 295.918 947.462 298.287 941.423 298.584C935.88 298.88 929.347 297.3 924.892 294.733L916.775 290.092L920.141 305.693L922.913 306.68C929.644 309.149 936.276 310.235 942.314 310.235C960.033 310.136 973.594 300.657 973.199 285.452Z" fill="black"/>
<path d="M674.357 92.5667C674.357 61.8928 699.286 37.0267 730.037 37.0267H742.411C773.163 37.0267 798.092 61.8928 798.092 92.5667V104.909C798.092 135.583 773.163 160.449 742.411 160.449H730.037C699.286 160.449 674.357 135.583 674.357 104.909V92.5667Z" fill="url(#paint0_linear_43_339)"/>
<path d="M263.115 188.885C259.353 187.244 256.767 185.133 255.122 181.616C253.006 177.16 253.241 173.877 253.006 169.187L236.549 31.0654C235.844 26.1408 236.314 22.8578 238.665 18.8713C241.016 14.6502 243.602 13.2432 247.834 11.3672H181.771L149.563 115.721L109.362 11.3672H46.5908C50.5874 14.6502 52.9384 17.2297 54.8192 22.3888C57.1701 27.5479 57.8754 31.0654 57.1701 36.9279L42.1239 165.67C41.1835 172.236 40.0081 175.988 36.2465 181.616C33.8955 184.664 32.2499 186.54 28.9585 188.885H85.1466C81.8553 187.478 79.9745 186.306 77.6235 183.961C74.0971 180.678 71.0408 177.864 71.511 172.939L80.9149 72.5723L113.123 158.4C116.65 168.484 123.467 175.519 129.58 180.209C138.279 186.54 144.156 190.292 154.735 192.872L191.41 74.2138L201.049 169.187C201.52 173.877 200.814 177.16 198.698 181.616C197.053 185.133 194.702 187.244 190.705 188.885H263.115Z" fill="#EDCC90"/>
<path d="M468.538 188.885C464.071 184.899 461.485 182.319 457.959 177.629C454.432 172.939 452.081 169.891 449.965 164.263L394.483 11.3672H326.54C333.122 13.4777 338.765 20.0438 338.765 28.0168C339 30.3619 338.53 31.7689 337.824 34.1139L291.04 169.187C288.924 174.581 286.103 177.395 282.576 181.616C280.226 184.43 278.815 186.54 275.994 188.885H335.708C331.712 187.713 326.069 185.133 323.483 179.271C321.132 173.877 321.838 168.718 323.718 162.856L333.357 134.715H386.724L396.128 163.09C398.244 168.953 398.714 173.643 395.893 179.271C393.072 184.899 388.135 187.713 384.138 188.885H468.538ZM378.261 108.92H340.645L359.453 57.3296L378.261 108.92Z" fill="#EDCC90"/>
<path d="M622.269 62.7232C620.859 33.6449 601.346 11.3672 564.671 11.3672H487.559C490.145 13.0087 491.791 14.1812 493.671 16.5262C496.022 20.0438 498.843 30.5964 498.843 31.2999V166.842C498.843 174.346 496.728 179.74 491.32 185.133C489.675 187.009 488.499 187.713 486.383 189.12H559.969C555.972 186.306 553.856 184.195 551.27 179.974C547.038 173.174 546.333 167.78 546.333 159.807V39.9765L549.86 40.4455C566.551 42.087 574.31 57.0951 573.839 73.0413C573.369 91.8015 565.141 107.279 548.214 113.61L563.73 113.845C593.587 114.079 623.21 92.2705 622.269 62.7232Z" fill="#EDCC90"/>
<path d="M837.212 97.664C837.212 44.432 795.13 9.25667 738.236 9.25667C678.757 9.25667 637.615 50.0601 637.615 102.354C637.615 151.365 674.525 193.81 732.594 193.81C793.719 193.81 837.212 158.166 837.212 97.664ZM784.315 109.858C784.315 139.405 771.62 167.077 738.236 167.077C707.674 167.077 689.336 130.025 689.336 94.1465C689.336 62.4887 704.382 35.7554 734.475 35.7554C769.974 35.7554 784.315 73.7448 784.315 109.858Z" fill="#EDCC90"/>
<path d="M985.294 152.069C972.128 160.276 968.132 163.325 946.738 163.559C935.688 163.559 929.811 162.856 919.702 159.104V32.9414C919.702 32.0034 920.877 24.2648 923.228 20.7473C926.284 16.7607 927.695 14.1812 931.692 11.3672H857.401C861.868 13.4777 863.984 16.0572 866.805 19.8093C869.391 23.3268 870.096 30.8309 870.096 31.7689V167.077C870.096 174.346 865.629 182.554 862.808 184.664C860.692 186.54 859.517 187.713 856.931 189.12L975.89 188.885L985.294 152.069Z" fill="#EDCC90"/>
<path fill-rule="evenodd" clip-rule="evenodd" d="M628.335 102.354C628.335 44.4787 674.115 0 738.236 0C768.57 0 795.601 9.38745 815.183 26.5435C834.868 43.7893 846.492 68.4468 846.492 97.664C846.492 130.27 834.693 156.922 814.002 175.333C793.438 193.631 764.918 203.067 732.594 203.067C669.246 203.067 628.335 156.323 628.335 102.354ZM738.236 18.5133C683.399 18.5133 646.895 55.6415 646.895 102.354C646.895 146.408 679.804 184.553 732.594 184.553C761.395 184.553 785.184 176.167 801.647 161.517C817.985 146.98 827.932 125.56 827.932 97.664C827.932 73.6493 818.515 54.1031 802.935 40.4532C787.252 26.7136 764.795 18.5133 738.236 18.5133ZM20.7237 2.11052H115.737L148.594 87.3996L174.918 2.11052H247.833L251.602 19.826C249.497 20.7595 248.685 21.2113 248.159 21.6097C247.836 21.8547 247.408 22.233 246.777 23.3667L246.721 23.4663L246.664 23.5646C245.944 24.7839 245.715 25.5341 245.614 26.1384C245.502 26.8143 245.462 27.8436 245.736 29.7563L245.751 29.8645L262.258 168.409L262.274 168.725C262.323 169.691 262.357 170.519 262.388 171.24C262.533 174.686 262.575 175.688 263.508 177.653L263.531 177.701C263.977 178.656 264.541 179.404 266.834 180.405L265.807 185.303L270.053 181.774C271.453 180.61 272.115 179.789 273.442 178.142C273.973 177.482 274.612 176.69 275.447 175.69C276.057 174.96 276.609 174.308 277.113 173.713C279.838 170.495 281.139 168.96 282.334 165.974L328.991 31.2705C329.01 31.2076 329.028 31.1472 329.045 31.089C329.181 30.6385 329.277 30.3208 329.364 30.0107C329.463 29.6557 329.505 29.468 329.526 29.3595C329.543 29.2696 329.544 29.2363 329.545 29.2211C329.546 29.2027 329.549 29.1206 329.53 28.9379L329.484 28.4785V28.0168C329.484 24.4374 326.812 21.1778 323.7 20.1798L326.539 2.11052H400.993L458.654 161.012C458.66 161.028 458.666 161.043 458.672 161.059C460.256 165.257 461.839 167.362 465.331 172.006L465.383 172.075C468.426 176.123 470.542 178.253 474.726 181.987L477.14 184.141L481.235 181.418C481.478 181.257 481.69 181.116 481.878 180.992C482.66 180.473 483.014 180.238 483.37 179.966C483.64 179.758 483.903 179.532 484.336 179.038L484.54 178.806L484.758 178.588C486.772 176.579 487.863 174.889 488.511 173.298C489.163 171.695 489.563 169.707 489.563 166.842V32.2169C489.517 32.03 489.46 31.8045 489.39 31.5423C489.126 30.5404 488.741 29.1877 488.287 27.748C487.829 26.2974 487.331 24.854 486.846 23.6357C486.605 23.029 486.388 22.5341 486.205 22.1545C486.152 22.0441 486.107 21.9536 486.069 21.8816C485.295 20.9913 484.553 20.4316 482.576 19.1767L455.69 2.11052H564.67C584.942 2.11052 601.441 8.31014 613.111 19.4542C624.746 30.5644 630.738 45.7855 631.538 62.2758L631.542 62.3526L631.545 62.4295C632.123 80.599 623.245 96.0114 610.473 106.577C597.767 117.088 580.773 123.236 563.657 123.101L563.589 123.1L555.613 122.98V159.807C555.613 166.922 556.204 170.352 559.155 175.093L559.189 175.147C561.039 178.169 562.232 179.383 565.32 181.558L589.208 198.377H455.733L456.086 198.142H384.138L381.52 180.005C383.807 179.334 386.236 177.837 387.593 175.131C388.403 173.515 388.594 172.381 388.582 171.372C388.569 170.216 388.281 168.677 387.397 166.226L387.355 166.111L380.018 143.972H339.993L332.53 165.76C330.943 170.736 330.977 173.235 331.986 175.561C332.898 177.608 335.176 179.08 338.327 180.005L335.708 198.142H190.705L187.172 180.326C189.328 179.44 189.761 178.83 190.289 177.701L190.311 177.653C191.819 174.478 192.092 172.878 191.816 170.116L191.815 170.108L186.789 120.585L161.027 203.935L152.532 201.864C140.217 198.861 133.181 194.29 124.109 187.686L124.015 187.617L123.922 187.546C116.98 182.22 108.731 173.86 104.397 161.553L86.3934 113.577L80.7492 173.817C80.7477 173.832 80.7466 173.846 80.7457 173.859C80.7614 173.886 80.7824 173.92 80.81 173.961C80.9607 174.189 81.2456 174.552 81.7974 175.124C82.3684 175.715 83.028 176.33 83.9554 177.194L84.0723 177.303L84.1854 177.415C85.5425 178.769 86.3679 179.337 88.8021 180.377L85.1465 198.142H0L23.5644 181.353C25.7587 179.79 26.772 178.705 28.6949 176.225C31.3829 172.155 32.156 169.77 32.9202 164.477L47.9559 35.8251C48.2361 33.4954 48.1837 32.0801 47.9899 30.9356C47.7915 29.7631 47.3658 28.403 46.3707 26.2192L46.2211 25.891L46.0976 25.5522C44.9629 22.4398 43.8839 21.1354 40.6911 18.5127L20.7237 2.11052ZM47.9726 179.629H63.1007C62.3681 177.432 62.0007 174.921 62.2717 172.07L62.2725 172.062L71.6749 71.7109L89.6059 69.3273L121.851 155.253L121.885 155.351C124.599 163.11 129.913 168.768 135.148 172.803C140.433 176.647 144.267 179.226 148.648 181.147L182.542 71.4866L200.643 73.2815L210.283 168.266C210.71 172.522 210.391 176.095 209.383 179.629H244.674C243.955 176.458 243.869 173.644 243.798 171.325C243.784 170.845 243.77 170.386 243.751 169.95L227.346 32.2609C226.927 29.2853 226.78 26.2481 227.307 23.0948C227.448 22.247 227.633 21.4249 227.857 20.6239H188.624L150.532 144.042L102.986 20.6239H64.1623C65.1036 22.9281 65.8562 25.2833 66.2912 27.8535C66.8607 31.2181 66.8092 34.4879 66.3859 38.0147L66.384 38.0308L51.3276 166.86L51.3106 166.979C50.6148 171.837 49.7271 175.678 47.9726 179.629ZM80.7049 173.782L80.7079 173.789ZM447.889 179.629C445.443 176.244 443.228 172.705 441.276 167.513L441.257 167.463L387.972 20.6239H346.98C347.628 22.8197 348 25.1461 348.041 27.5714C348.341 31.4371 347.484 34.244 346.853 36.3112C346.805 36.4697 346.758 36.6238 346.713 36.7738L346.658 36.9564L299.75 172.386L299.682 172.56C298.603 175.312 297.331 177.62 295.999 179.629H313.766C311.689 172.463 313.022 165.826 314.88 160.034L314.907 159.948L326.721 125.459H393.43L404.903 160.074C406.114 163.453 407.096 167.15 407.141 171.164C407.174 174.054 406.72 176.857 405.782 179.629H447.889ZM574.664 103.548C583.561 101.78 591.961 97.8389 598.625 92.3269C607.872 84.677 613.332 74.4394 612.996 63.0913C612.37 50.5387 607.903 40.1104 600.277 32.8274C592.669 25.5631 581.074 20.6239 564.67 20.6239H505.484C505.67 21.1819 505.839 21.7084 505.991 22.1887C506.535 23.9147 507.003 25.552 507.341 26.8364C507.509 27.4734 507.658 28.0714 507.772 28.5776C507.827 28.8242 507.889 29.1126 507.942 29.4047L507.944 29.4119C507.961 29.5014 508.123 30.3413 508.123 31.2999V166.842C508.123 171.34 507.505 175.669 505.867 179.863H540.685C537.586 173.096 537.053 166.931 537.053 159.807V29.4036L550.939 31.2505C562.129 32.4 570.619 38.163 576.012 46.2532C581.267 54.1349 583.389 63.8633 583.116 73.2874C582.838 84.2769 580.146 94.8152 574.664 103.548ZM555.613 51.7292V97.9808C561.229 92.0621 564.294 83.4973 564.562 72.81L564.563 72.7692C564.755 66.2553 563.233 60.5171 560.558 56.5051C559.251 54.5451 557.63 52.9163 555.613 51.7292ZM853.428 19.7328L857.401 2.11052H960.931L937.043 18.9296C935.158 20.2569 934.552 21.0753 932.777 23.4723C932.266 24.162 931.658 24.9824 930.895 25.9832C930.814 26.143 930.645 26.4993 930.427 27.1098C930.134 27.9307 929.858 28.9097 929.617 29.9318C929.378 30.9417 929.2 31.8881 929.084 32.6031C929.036 32.9068 929.002 33.1438 928.982 33.3056V152.427C934.486 153.964 939.055 154.301 946.686 154.303C957.023 154.187 962.186 153.382 966.094 152.047C969.933 150.735 973.045 148.793 979.203 144.95C979.582 144.714 979.972 144.47 980.375 144.219L1000 131.984L983.105 198.128L856.949 198.377L852.487 180.994C853.791 180.284 854.224 179.898 855.909 178.398C856.13 178.201 856.373 177.985 856.643 177.746L856.931 177.49L857.017 177.426C857.089 177.343 857.253 177.146 857.497 176.794C857.969 176.111 858.529 175.144 859.062 173.975C860.178 171.525 860.816 168.989 860.816 167.077V31.943C860.814 31.9233 860.813 31.8997 860.81 31.872C860.796 31.6988 860.771 31.4337 860.731 31.096C860.649 30.4154 860.518 29.5375 860.329 28.6138C860.136 27.6741 859.907 26.8117 859.66 26.115C859.454 25.5341 859.31 25.28 859.295 25.2494C856.734 21.8506 855.737 20.824 853.428 19.7328ZM877.392 20.6239C877.927 22.247 878.276 23.7525 878.511 24.899C879.088 27.7084 879.376 30.4749 879.376 31.7689V167.077C879.376 171.657 878.21 176.125 876.732 179.824L968.674 179.643L971.17 169.871C964.681 171.934 957.352 172.7 946.839 172.815L946.789 172.816H946.738C934.88 172.816 927.856 172.007 916.465 167.779L910.421 165.536V32.9414C910.421 31.8525 910.629 30.4775 910.759 29.6669C910.938 28.5572 911.2 27.1732 911.55 25.6916C911.871 24.3305 912.347 22.5134 913.043 20.6239H877.392ZM708.205 58.4142C702.09 67.0626 698.616 79.6223 698.616 94.1465C698.616 110.679 702.873 127.183 710.248 139.247C717.602 151.276 727.246 157.82 738.236 157.82C751.924 157.82 760.57 152.359 766.158 144.287C772.069 135.751 775.035 123.517 775.035 109.858C775.035 92.809 771.617 76.0245 764.649 63.8551C757.89 52.0508 748.178 45.0121 734.475 45.0121C722.605 45.0121 714.083 50.0998 708.205 58.4142ZM693.037 47.7444C702.204 34.7777 716.252 26.4988 734.475 26.4988C756.27 26.4988 771.479 38.4548 780.766 54.6735C789.843 70.5271 793.595 90.7939 793.595 109.858C793.595 125.747 790.214 142.122 781.431 154.808C772.326 167.958 757.932 176.333 738.236 176.333C718.663 176.333 703.857 164.352 694.402 148.886C684.968 133.454 680.056 113.492 680.056 94.1465C680.056 77.0129 684.105 60.377 693.037 47.7444ZM359.453 30.243L391.51 118.177H327.396L359.453 30.243ZM353.894 99.6635H365.011L359.453 84.4163L353.894 99.6635Z" fill="black"/>
<defs>
<linearGradient id="paint0_linear_43_339" x1="500" y1="0" x2="500" y2="311.518" gradientUnits="userSpaceOnUse">
<stop stop-color="#7AC4CF"/>
<stop offset="1" stop-color="#02597F"/>
</linearGradient>
</defs>
</svg>
