<svg width="442" height="138" viewBox="0 0 442 138" fill="none" xmlns="http://www.w3.org/2000/svg">
<g clip-path="url(#clip0_253_99)">
<path d="M55.7411 136.477C55.041 136.171 54.5597 135.778 54.2534 135.123C53.8595 134.293 53.9033 133.682 53.8595 132.808L50.7969 107.085C50.6656 106.168 50.7532 105.557 51.1907 104.814C51.6283 104.028 52.1097 103.766 52.8973 103.417H40.6026L34.6085 122.851L27.1268 103.417H15.4448C16.1886 104.028 16.6261 104.508 16.9761 105.469C17.4137 106.43 17.5449 107.085 17.4137 108.177L14.6135 132.153C14.4385 133.376 14.2197 134.075 13.5197 135.123C13.0821 135.691 12.7759 136.04 12.1633 136.477H22.6202C22.0077 136.215 21.6577 135.996 21.2201 135.56C20.5639 134.948 19.9951 134.424 20.0826 133.507L21.8327 114.815L27.8268 130.799C28.4831 132.677 29.7519 133.987 30.8895 134.861C32.5084 136.04 33.6022 136.739 35.571 137.219L42.3965 115.121L44.1903 132.808C44.2779 133.682 44.1466 134.293 43.7528 135.123C43.4465 135.778 43.009 136.171 42.2652 136.477H55.7411Z" fill="#977E67"/>
<path d="M93.9713 136.477C93.1399 135.735 92.6586 135.254 92.0022 134.381C91.3463 133.507 90.9087 132.939 90.5149 131.891L80.1893 103.417H67.5446C68.7698 103.81 69.8196 105.033 69.8196 106.517C69.8633 106.954 69.7758 107.216 69.6445 107.653L60.938 132.808C60.5442 133.813 60.0191 134.337 59.3627 135.123C58.9251 135.647 58.6626 136.04 58.1379 136.477H69.2511C68.5073 136.258 67.4571 135.778 66.9757 134.686C66.5382 133.682 66.6694 132.721 67.0195 131.629L68.8136 126.389H78.7453L80.4952 131.673C80.889 132.764 80.9765 133.638 80.4514 134.686C79.9268 135.735 79.0079 136.258 78.264 136.477H93.9713ZM77.17 121.585H70.1696L73.6698 111.976L77.17 121.585Z" fill="#977E67"/>
<path d="M122.582 112.981C122.319 107.566 118.687 103.417 111.862 103.417H97.5113C97.9922 103.722 98.2985 103.941 98.6485 104.378C99.0861 105.033 99.6112 106.998 99.6112 107.129V132.372C99.6112 133.769 99.2174 134.773 98.211 135.778C97.9047 136.127 97.6863 136.258 97.2925 136.52H110.987C110.243 135.996 109.849 135.603 109.368 134.817C108.581 133.551 108.449 132.546 108.449 131.062V108.745L109.105 108.832C112.212 109.138 113.656 111.933 113.568 114.903C113.481 118.396 111.95 121.279 108.799 122.458L111.687 122.502C117.243 122.545 122.757 118.484 122.582 112.981Z" fill="#977E67"/>
<path d="M175.829 119.488C175.829 109.575 167.997 103.024 157.409 103.024C146.34 103.024 138.683 110.622 138.683 120.362C138.683 129.489 145.552 137.394 156.359 137.394C167.735 137.394 175.829 130.756 175.829 119.488ZM165.985 121.759C165.985 127.262 163.622 132.415 157.409 132.415C151.721 132.415 148.309 125.515 148.309 118.833C148.309 112.937 151.109 107.958 156.709 107.958C163.316 107.958 165.985 115.034 165.985 121.759Z" fill="#977E67"/>
<path d="M199.319 110.885V103.155C199.1 103.285 198.968 103.329 198.837 103.373C198.531 103.46 198.356 103.417 198.05 103.417H179.28C180.024 103.853 180.417 104.247 180.899 104.902C181.38 105.513 181.555 107.216 181.555 107.391V132.415C181.555 133.813 181.336 134.861 180.33 135.822C179.98 136.127 179.718 136.302 179.324 136.52L193.325 136.477C192.668 135.996 192.362 135.647 191.924 134.948C191.137 133.769 190.875 132.852 190.875 131.411V121.585H193.587C194.331 121.585 195.162 121.803 195.818 122.545C196.256 123.026 196.518 123.331 196.65 123.986V116.257C196.475 116.344 196.3 116.431 196.125 116.475C195.95 116.562 195.775 116.649 195.6 116.649H190.875V108.57H195.906C196.212 108.57 197.35 108.876 198.094 109.4C198.662 109.837 198.968 110.273 199.319 110.885Z" fill="#977E67"/>
<path d="M240.133 129.62C237.683 131.149 236.939 131.717 232.958 131.76C230.901 131.76 229.808 131.629 227.926 130.93V107.435C227.926 107.26 228.145 105.819 228.583 105.164C229.151 104.421 229.414 103.941 230.157 103.417H216.332C217.163 103.81 217.557 104.29 218.082 104.989C218.563 105.644 218.695 107.042 218.695 107.216V132.415C218.695 133.769 217.863 135.297 217.338 135.691C216.944 136.04 216.725 136.258 216.244 136.52L238.383 136.477L240.133 129.62Z" fill="#977E67"/>
<path d="M268.132 128.834C266.076 130.668 265.726 131.367 261.744 131.847C259.557 132.066 256.668 131.629 255.225 131.062V121.585H258.55C258.856 121.585 260.037 121.672 260.781 122.196C261.438 122.632 261.788 123.069 262.05 123.812V116.3C261.831 116.388 261.613 116.475 261.394 116.562C260.913 116.693 260.562 116.649 260.081 116.649H255.269V108.57H260.256C260.562 108.57 261.744 108.832 262.488 109.356C263.1 109.793 263.406 110.142 263.713 110.841V103.155C263.538 103.285 263.406 103.329 263.188 103.373C262.925 103.46 262.707 103.417 262.444 103.417H243.674C244.374 103.853 244.768 104.378 245.293 105.033C245.73 105.688 245.949 107.042 245.949 107.172V132.197C245.949 133.551 245.73 134.599 244.768 135.647C244.374 136.084 244.068 136.215 243.543 136.477H266.032L268.132 128.834Z" fill="#977E67"/>
<path d="M300.758 135.647V119.488H290.039C290.739 119.968 291.089 120.362 291.526 121.104C291.92 121.803 292.139 122.327 292.139 123.2V131.804C292.008 131.891 291.92 131.891 291.789 131.891C291.658 131.935 291.614 131.978 291.439 131.978H289.207C283.826 131.978 280.72 125.952 280.72 119.095C280.763 114.771 281.988 108.788 289.514 108.177C291.701 107.958 294.852 109.181 295.727 109.749L297.608 110.885L297.564 104.028C295.464 103.329 292.751 103.198 289.82 103.024C280.151 102.5 271.181 110.142 271.269 120.012C271.312 131.018 280.282 137.306 289.951 137.132C294.151 137.045 299.62 136.084 300.758 135.647Z" fill="#977E67"/>
<path d="M328.848 128.834C326.791 130.668 326.441 131.367 322.459 131.847C320.272 132.066 317.384 131.629 315.94 131.062V121.585H319.265C319.572 121.585 320.753 121.672 321.497 122.196C322.153 122.632 322.503 123.069 322.766 123.812V116.3C322.547 116.388 322.328 116.475 322.109 116.562C321.628 116.693 321.278 116.649 320.797 116.649H315.984V108.57H320.972C321.278 108.57 322.459 108.832 323.203 109.356C323.816 109.793 324.122 110.142 324.428 110.841V103.155C324.253 103.285 324.122 103.329 323.903 103.373C323.641 103.46 323.422 103.417 323.159 103.417H304.389C305.09 103.853 305.483 104.378 306.009 105.033C306.446 105.688 306.665 107.042 306.665 107.172V132.197C306.665 133.551 306.446 134.599 305.483 135.647C305.09 136.084 304.783 136.215 304.258 136.477H326.747L328.848 128.834Z" fill="#977E67"/>
<path d="M365.324 103.417H355.654C356.355 104.072 356.661 104.771 357.142 105.644C357.58 106.605 357.842 107.26 357.842 108.352V123.943L342.485 103.417H332.028C332.334 103.635 333.559 105.076 334.172 106.299C334.828 107.697 334.916 108.701 334.916 110.273V131.28C334.916 132.721 334.566 133.856 333.909 134.948C333.515 135.603 333.209 135.953 332.64 136.477H342.616C342.047 135.953 341.697 135.603 341.304 134.948C340.516 133.726 340.297 132.764 340.297 131.323V115.907L351.804 131.323C352.854 132.721 354.385 134.162 357.711 135.909C359.636 136.957 360.949 137.35 363.092 137.787L363.136 108.395C363.136 107.26 363.311 106.561 363.836 105.557C364.274 104.727 364.668 104.072 365.324 103.417Z" fill="#977E67"/>
<path d="M402.506 120.493C402.637 111.278 395.768 103.417 385.88 103.417H369.473C370.129 103.853 370.479 104.378 370.916 104.989C371.441 105.775 371.748 106.343 371.748 107.26V132.415C371.748 133.856 371.485 134.861 370.479 135.865C370.085 136.302 369.735 136.258 369.21 136.477H384.479C396.424 136.477 402.331 129.882 402.506 120.493ZM392.749 120.405C392.705 126.345 389.774 134.424 382.336 131.629L380.848 131.062V109.312L382.379 109.051C390.211 107.566 392.749 114.466 392.749 120.405Z" fill="#977E67"/>
<path d="M430.154 126.258C430.066 122.065 427.047 118.615 423.678 117.086L420.353 115.558C416.897 113.898 414.184 112.763 415.234 110.099C415.978 108.308 417.816 107.784 419.784 107.871C421.622 107.958 423.547 108.614 424.51 109.138L426.479 110.23V104.378L423.328 103.592C421.403 103.155 419.522 102.937 417.684 102.98C411.253 103.198 405.871 106.43 405.696 112.02C405.521 117.086 408.015 119.707 413.834 122.545L417.334 124.249C419.259 125.166 420.878 126.389 420.878 128.528C420.922 130.887 418.778 131.935 416.109 132.066C413.659 132.197 410.771 131.498 408.802 130.363L405.215 128.31L406.702 135.21L407.928 135.647C410.903 136.739 413.834 137.219 416.503 137.219C424.335 137.176 430.329 132.983 430.154 126.258Z" fill="#977E67"/>
<path d="M298.066 40.943C298.066 27.3757 309.084 16.3772 322.676 16.3772H328.146C341.738 16.3772 352.757 27.3757 352.757 40.943V46.4021C352.757 59.9694 341.738 70.9678 328.146 70.9678H322.676C309.084 70.9678 298.066 59.9694 298.066 46.4021V40.943Z" fill="url(#paint0_linear_253_99)"/>
<path d="M116.297 83.5453C114.634 82.8195 113.491 81.8858 112.764 80.3302C111.829 78.3592 111.932 76.9071 111.829 74.8327L104.555 13.7405C104.243 11.5623 104.451 10.1102 105.49 8.34692C106.529 6.4799 107.672 5.85757 109.543 5.0278H80.3427L66.1068 51.1843L48.3379 5.0278H20.593C22.3595 6.4799 23.3987 7.62083 24.23 9.90274C25.2691 12.1846 25.5808 13.7405 25.2691 16.3335L18.6187 73.2771C18.203 76.1813 17.6835 77.8408 16.0209 80.3302C14.9817 81.6783 14.2544 82.5081 12.7996 83.5453H37.6347C36.1799 82.923 35.3486 82.4046 34.3095 81.3674C32.7508 79.9153 31.3999 78.6706 31.6078 76.4923L35.7643 32.0993L50.0003 70.0615C51.5592 74.5218 54.5723 77.6334 57.2743 79.7078C61.1192 82.5081 63.7169 84.1676 68.3928 85.3088L84.6031 32.8253L88.8636 74.8327C89.0717 76.9071 88.7597 78.3592 87.8244 80.3302C87.0973 81.8858 86.0582 82.8195 84.2915 83.5453H116.297Z" fill="#EDCC90"/>
<path d="M207.094 83.5453C205.119 81.7823 203.976 80.6411 202.418 78.5667C200.859 76.4923 199.82 75.1441 198.884 72.6548L174.361 5.0278H144.331C147.24 5.96129 149.734 8.86553 149.734 12.392C149.838 13.4293 149.63 14.0516 149.318 15.0888L128.64 74.8327C127.704 77.2185 126.457 78.4632 124.899 80.3302C123.86 81.5748 123.236 82.5081 121.989 83.5453H148.383C146.617 83.0269 144.122 81.8858 142.979 79.2929C141.94 76.9071 142.252 74.6253 143.083 72.0325L147.344 59.5855H170.932L175.088 72.136C176.024 74.7292 176.232 76.8036 174.985 79.2929C173.738 81.7823 171.556 83.0269 169.789 83.5453H207.094ZM167.191 48.1762H150.565L158.878 25.3573L167.191 48.1762Z" fill="#EDCC90"/>
<path d="M275.043 27.743C274.42 14.8814 265.795 5.0278 249.585 5.0278H215.501C216.644 5.75385 217.372 6.27246 218.203 7.30967C219.242 8.86553 220.489 13.533 220.489 13.8442V73.7955C220.489 77.1146 219.554 79.5004 217.163 81.8858C216.436 82.7155 215.917 83.0269 214.981 83.6492H247.506C245.74 82.4046 244.804 81.4709 243.661 79.6039C241.791 76.5962 241.479 74.2104 241.479 70.6839V17.6819L243.038 17.8894C250.416 18.6154 253.845 25.2536 253.637 32.3067C253.429 40.6045 249.792 47.4503 242.311 50.2506L249.169 50.3545C262.365 50.458 275.459 40.812 275.043 27.743Z" fill="#EDCC90"/>
<path d="M370.048 43.1975C370.048 19.6526 351.447 4.0943 326.3 4.0943C300.011 4.0943 281.826 22.142 281.826 45.272C281.826 66.9499 298.14 85.7237 323.807 85.7237C350.824 85.7237 370.048 69.958 370.048 43.1975ZM346.667 48.591C346.667 61.6599 341.056 73.8994 326.3 73.8994C312.792 73.8994 304.686 57.5111 304.686 41.6417C304.686 27.6392 311.337 15.8149 324.638 15.8149C340.328 15.8149 346.667 32.6179 346.667 48.591Z" fill="#EDCC90"/>
<path d="M435.5 67.2613C429.681 70.8913 427.914 72.2399 418.458 72.3434C413.574 72.3434 410.977 72.0325 406.508 70.3729V14.5702C406.508 14.1554 407.028 10.7325 408.067 9.17669C409.418 7.41339 410.041 6.27246 411.808 5.0278H378.971C380.946 5.96129 381.881 7.10222 383.128 8.76181C384.271 10.3176 384.582 13.6367 384.582 14.0516V73.8994C384.582 77.1146 382.608 80.745 381.361 81.6783C380.426 82.5081 379.907 83.0269 378.764 83.6492L431.343 83.5453L435.5 67.2613Z" fill="#EDCC90"/>
<path fill-rule="evenodd" clip-rule="evenodd" d="M277.724 45.272C277.724 19.6733 297.959 0 326.3 0C339.708 0 351.656 4.15214 360.311 11.7404C369.012 19.3683 374.149 30.2745 374.149 43.1975C374.149 57.6194 368.934 69.4078 359.789 77.5511C350.7 85.6445 338.094 89.8181 323.807 89.8181C295.807 89.8181 277.724 69.1429 277.724 45.272ZM326.3 8.18857C302.062 8.18857 285.928 24.6107 285.928 45.272C285.928 64.7574 300.473 81.6292 323.807 81.6292C336.537 81.6292 347.051 77.92 354.328 71.4402C361.549 65.0104 365.946 55.5362 365.946 43.1975C365.946 32.5757 361.784 23.9302 354.897 17.8928C347.965 11.8156 338.039 8.18857 326.3 8.18857ZM9.15988 0.933499H51.1558L65.6785 38.6575L77.3138 0.933499H109.542L111.208 8.76919C110.278 9.18209 109.919 9.38192 109.686 9.55814C109.544 9.6665 109.354 9.83383 109.075 10.3353L109.051 10.3793L109.025 10.4228C108.707 10.9621 108.606 11.2939 108.561 11.5612C108.512 11.8602 108.494 12.3154 108.615 13.1614L108.622 13.2093L115.918 74.4886L115.925 74.6284C115.947 75.0556 115.962 75.4219 115.975 75.7408C116.04 77.265 116.058 77.7082 116.471 78.5773L116.481 78.5985C116.678 79.0209 116.927 79.3518 117.941 79.7945L117.487 81.9609L119.363 80.4C119.982 79.8852 120.275 79.5221 120.861 78.7936C121.096 78.5017 121.379 78.1513 121.748 77.709C122.017 77.3862 122.261 77.0978 122.484 76.8346C123.688 75.4112 124.263 74.7323 124.792 73.4116L145.414 13.8312C145.422 13.8034 145.43 13.7766 145.438 13.7509C145.498 13.5516 145.54 13.4111 145.579 13.274C145.623 13.1169 145.641 13.0339 145.65 12.9859C145.658 12.9462 145.658 12.9314 145.659 12.9247C145.659 12.9166 145.661 12.8803 145.652 12.7995L145.632 12.5963V12.392C145.632 10.8088 144.451 9.3671 143.075 8.92568L144.33 0.933499H177.239L202.725 71.2168C202.728 71.2239 202.73 71.2306 202.733 71.2376C203.433 73.0944 204.133 74.0255 205.676 76.0796L205.699 76.1101C207.044 77.9006 207.98 78.8427 209.829 80.4942L210.896 81.447L212.706 80.2426C212.813 80.1714 212.907 80.109 212.99 80.0542C213.336 79.8246 213.492 79.7207 213.65 79.6003C213.769 79.5083 213.885 79.4084 214.077 79.1899L214.167 79.0873L214.263 78.9908C215.153 78.1022 215.635 77.3547 215.922 76.651C216.21 75.942 216.387 75.0627 216.387 73.7955V14.2498C216.367 14.1671 216.341 14.0674 216.31 13.9514C216.194 13.5083 216.024 12.9099 215.823 12.2732C215.62 11.6315 215.4 10.9931 215.186 10.4543C215.079 10.1859 214.983 9.96701 214.903 9.79911C214.879 9.75027 214.859 9.71025 214.842 9.6784C214.5 9.28461 214.172 9.03705 213.299 8.482L201.415 0.933499H249.584C258.544 0.933499 265.837 3.67564 270.995 8.60474C276.138 13.5189 278.786 20.2513 279.14 27.5451L279.142 27.579L279.143 27.613C279.398 35.6496 275.474 42.4666 269.829 47.1398C264.213 51.7889 256.702 54.5082 249.136 54.4485L249.106 54.4481L245.581 54.395V70.6839C245.581 73.8309 245.842 75.348 247.147 77.445L247.162 77.4689C247.979 78.8055 248.507 79.3425 249.871 80.3045L260.43 87.7437H201.434L201.59 87.6397H169.789L168.632 79.6176C169.643 79.3208 170.716 78.6587 171.316 77.4618C171.674 76.747 171.759 76.2454 171.753 75.7991C171.747 75.2878 171.62 74.6071 171.229 73.523L171.211 73.4722L167.968 63.6799H150.277L146.978 73.3169C146.277 75.5178 146.292 76.6232 146.738 77.652C147.141 78.5574 148.148 79.2085 149.541 79.6176L148.383 87.6397H84.2916L82.73 79.7596C83.683 79.3677 83.8744 79.0979 84.1077 78.5985L84.1175 78.5773C84.784 77.173 84.9047 76.4653 84.7827 75.2436L84.7822 75.2401L82.5607 53.3357L71.1739 90.202L67.4191 89.286C61.9759 87.9577 58.866 85.936 54.8562 83.015L54.8146 82.9844L54.7735 82.953C51.7052 80.5973 48.0591 76.8996 46.1435 71.4561L38.1859 50.236L35.6911 76.8806C35.6905 76.8872 35.69 76.8934 35.6896 76.8992C35.6965 76.9111 35.7058 76.9262 35.718 76.9443C35.7846 77.0451 35.9106 77.2057 36.1545 77.4587C36.4068 77.7201 36.6984 77.9921 37.1083 78.3743L37.16 78.4225L37.2099 78.472C37.8098 79.0709 38.1746 79.3221 39.2505 79.7821L37.6348 87.6397H0L10.4155 80.2138C11.3853 79.5225 11.8332 79.0426 12.6831 77.9457C13.8712 76.1455 14.213 75.0906 14.5507 72.7494L21.1965 15.8457C21.3204 14.8153 21.2972 14.1893 21.2115 13.6831C21.1238 13.1644 20.9357 12.5629 20.4958 11.597L20.4297 11.4518L20.3751 11.3019C19.8736 9.9253 19.3967 9.34835 17.9855 8.18831L9.15988 0.933499ZM21.2039 79.4513H27.8905C27.5667 78.4795 27.4043 77.3689 27.5241 76.1079L27.5244 76.1043L31.6803 31.7183L39.6058 30.664L53.8581 68.6696L53.8732 68.7129C55.0728 72.1448 57.4215 74.6474 59.7354 76.4321C62.0714 78.1323 63.766 79.273 65.7024 80.1227L80.6836 31.6191L88.6842 32.413L92.9451 74.4253C93.1338 76.3078 92.9928 77.8882 92.5473 79.4513H108.146C107.828 78.0487 107.79 76.8041 107.759 75.7784C107.753 75.5661 107.746 75.363 107.738 75.1702L100.487 14.2692C100.302 12.9531 100.237 11.6097 100.47 10.215C100.532 9.84002 100.614 9.4764 100.713 9.12211H83.3718L66.5351 63.7109L45.5198 9.12211H28.3597C28.7758 10.1413 29.1084 11.183 29.3007 12.3198C29.5524 13.808 29.5297 15.2543 29.3426 16.8142L29.3417 16.8213L22.6868 73.8035L22.6793 73.8561C22.3717 76.0048 21.9794 77.7037 21.2039 79.4513ZM35.6716 76.8651L35.6729 76.8682L35.6716 76.8651ZM197.967 79.4513C196.886 77.9541 195.907 76.3887 195.044 74.0923L195.036 74.0702L171.484 9.12211H153.365C153.652 10.0933 153.816 11.1223 153.834 12.195C153.967 13.9049 153.588 15.1464 153.309 16.0607C153.288 16.1308 153.267 16.199 153.247 16.2653L153.223 16.3461L132.49 76.2477L132.459 76.3246C131.983 77.5418 131.42 78.5627 130.832 79.4513H138.685C137.767 76.2817 138.356 73.3461 139.177 70.7843L139.189 70.7462L144.411 55.4915H173.896L178.967 70.802C179.502 72.2965 179.936 73.9317 179.956 75.7072C179.971 76.9854 179.77 78.2252 179.356 79.4513H197.967ZM254.001 45.8001C257.934 45.0181 261.647 43.2749 264.592 40.8369C268.679 37.4533 271.093 32.9251 270.944 27.9058C270.668 22.3537 268.693 17.7411 265.322 14.5198C261.96 11.3068 256.835 9.12211 249.584 9.12211H223.424C223.506 9.36892 223.581 9.60179 223.648 9.81423C223.888 10.5777 224.095 11.3018 224.245 11.8699C224.319 12.1517 224.385 12.4162 224.435 12.6401C224.46 12.7492 224.487 12.8767 224.51 13.0059L224.511 13.0091C224.519 13.0487 224.59 13.4202 224.59 13.8442V73.7955C224.59 75.785 224.317 77.6998 223.593 79.5548H238.983C237.613 76.5617 237.377 73.8349 237.377 70.6839V13.0054L243.515 13.8223C248.461 14.3308 252.214 16.8798 254.597 20.4581C256.92 23.9443 257.858 28.2472 257.737 32.4156C257.614 37.2763 256.425 41.9375 254.001 45.8001ZM245.581 22.8802V43.3377C248.063 40.7198 249.418 36.9315 249.536 32.2044L249.537 32.1864C249.622 29.3052 248.949 26.7672 247.767 24.9926C247.189 24.1257 246.472 23.4053 245.581 22.8802ZM377.215 8.72797L378.971 0.933499H424.732L414.173 8.37271C413.34 8.95978 413.072 9.32177 412.287 10.382C412.062 10.687 411.793 11.0499 411.456 11.4926C411.42 11.5632 411.345 11.7208 411.249 11.9909C411.119 12.354 410.997 12.787 410.891 13.2391C410.785 13.6858 410.706 14.1044 410.655 14.4206C410.634 14.5549 410.619 14.6598 410.61 14.7313V67.4196C413.043 68.0995 415.062 68.2485 418.435 68.2494C423.004 68.1981 425.286 67.842 427.014 67.2516C428.71 66.6712 430.086 65.8123 432.808 64.1125C432.975 64.0081 433.148 63.9002 433.326 63.7892L442 58.3775L434.532 87.6335L378.771 87.7437L376.799 80.055C377.376 79.741 377.567 79.5703 378.312 78.9068C378.409 78.8197 378.517 78.7241 378.636 78.6184L378.764 78.5052L378.802 78.4769C378.833 78.4402 378.906 78.353 379.014 78.1973C379.222 77.8953 379.47 77.4675 379.705 76.9505C380.199 75.8668 380.481 74.7451 380.481 73.8994V14.1286C380.48 14.1199 380.479 14.1095 380.478 14.0972C380.472 14.0206 380.461 13.9034 380.443 13.754C380.407 13.453 380.349 13.0647 380.265 12.6561C380.18 12.2405 380.079 11.859 379.97 11.5509C379.879 11.2939 379.815 11.1815 379.808 11.168C378.676 9.66469 378.236 9.21061 377.215 8.72797ZM387.807 9.12211C388.044 9.84002 388.198 10.5059 388.302 11.013C388.557 12.2556 388.684 13.4793 388.684 14.0516V73.8994C388.684 75.9252 388.169 77.9014 387.516 79.5375L428.154 79.4575L429.257 75.1352C426.389 76.0477 423.15 76.3865 418.503 76.4374L418.481 76.4378H418.458C413.217 76.4378 410.112 76.08 405.078 74.2099L402.406 73.2178V14.5702C402.406 14.0886 402.498 13.4804 402.555 13.1219C402.635 12.6311 402.75 12.0189 402.905 11.3636C403.047 10.7616 403.257 9.95785 403.565 9.12211H387.807ZM313.027 25.837C310.324 29.6623 308.788 35.2176 308.788 41.6417C308.788 48.9542 310.67 56.254 313.93 61.59C317.18 66.9105 321.443 69.805 326.3 69.805C332.35 69.805 336.172 67.3896 338.642 63.8192C341.255 60.0437 342.565 54.6325 342.565 48.591C342.565 41.0501 341.055 33.6262 337.975 28.2436C334.987 23.0225 330.695 19.9092 324.638 19.9092C319.391 19.9092 315.625 22.1595 313.027 25.837ZM306.322 21.1177C310.374 15.3824 316.583 11.7206 324.638 11.7206C334.271 11.7206 340.994 17.0089 345.099 24.1825C349.111 31.1947 350.769 40.1588 350.769 48.591C350.769 55.6189 349.275 62.8617 345.393 68.4728C341.368 74.2891 335.006 77.9934 326.3 77.9934C317.649 77.9934 311.105 72.6942 306.926 65.8534C302.756 59.0277 300.585 50.1984 300.585 41.6417C300.585 34.0634 302.374 26.7052 306.322 21.1177ZM158.878 13.3767L173.047 52.2706H144.709L158.878 13.3767ZM156.421 44.0819H161.335L158.878 37.338L156.421 44.0819Z" fill="#977E67"/>
</g>
<defs>
<linearGradient id="paint0_linear_253_99" x1="221" y1="-8.78458e-07" x2="221" y2="137.787" gradientUnits="userSpaceOnUse">
<stop stop-color="#7AC4CF"/>
<stop offset="1" stop-color="#02597F"/>
</linearGradient>
<clipPath id="clip0_253_99">
<rect width="442" height="138" fill="white"/>
</clipPath>
</defs>
</svg>
