<svg width="773" height="29" viewBox="0 0 773 29" fill="none" xmlns="http://www.w3.org/2000/svg">
<path d="M387.468 0.748004H379.908C380.88 1.144 381.456 1.792 381.744 2.764C381.996 3.556 381.96 4.096 381.672 4.888L376.452 21.016L371.268 5.86C371.052 5.284 370.872 4.816 370.764 4.204C369.792 0.604004 370.152 1.108 370.116 0.748004H360.9C361.404 1.18 361.62 1.54001 362.016 2.04401C362.412 2.69201 362.556 3.16 362.808 3.84401L369.432 22.708C369.828 23.788 370.152 24.4 370.872 25.264C372.24 26.884 375.048 27.82 375.48 28L377.928 28.936L387.468 0.748004Z" fill="#C9A86C"/>
<path d="M410.429 19.576C410.357 16.12 407.873 13.276 405.101 12.016L402.365 10.756C399.521 9.388 397.289 8.452 398.153 6.256C398.765 4.78 400.277 4.34801 401.897 4.42C403.409 4.492 404.993 5.03201 405.785 5.464L407.405 6.36401V1.54L404.813 0.892005C403.229 0.532005 401.681 0.352005 400.169 0.388005C394.877 0.568005 390.449 3.232 390.305 7.84001C390.161 12.016 392.213 14.176 397.001 16.516L399.881 17.92C401.465 18.676 402.797 19.684 402.797 21.448C402.833 23.392 401.069 24.256 398.873 24.364C396.857 24.472 394.481 23.896 392.861 22.96L389.909 21.268L391.133 26.956L392.141 27.316C394.589 28.216 397.001 28.612 399.197 28.612C405.641 28.576 410.573 25.12 410.429 19.576Z" fill="#C9A86C"/>
<path fill-rule="evenodd" clip-rule="evenodd" d="M773 14H0V13H773V14Z" fill="url(#paint0_linear_163_110)"/>
<defs>
<linearGradient id="paint0_linear_163_110" x1="0" y1="13.9886" x2="773" y2="13.9886" gradientUnits="userSpaceOnUse">
<stop stop-opacity="0"/>
<stop offset="0.15625" stop-color="#C9A86C"/>
<stop offset="0.45551" stop-opacity="0"/>
<stop offset="0.540609" stop-opacity="0"/>
<stop offset="0.848958" stop-color="#C9A86C"/>
<stop offset="1" stop-opacity="0"/>
</linearGradient>
</defs>
</svg>
